<?xml version="1.0" encoding="utf-8"?>
<svg width="800" height="800" viewBox="0 0 800 800" xmlns="http://www.w3.org/2000/svg">
    <!-- lowest row of 3 panes left-right -->
    <g id="row-1" class="row">
        <polygon fill="#AA1215" points="407.29,658.408 350.092,568.685 267.098,578.218 	"/>

        <polygon fill="#980C11" points="487.631,568.685 407.29,658.408 350.092,568.685 	"/>

        <polygon fill="#810202" points="535.706,582.704 407.29,658.408 487.631,568.685 	"/>
    </g>

    <!-- low row of 7 panes left-right -->
    <g id="row-2" class="row">
        <polygon fill="#BD141B" points="134.487,465.296 195.891,436.697 267.098,578.218 	"/>

        <polygon fill="#C3181D" points="267.098,578.218 195.891,436.697 350.092,568.685 	"/>

        <polygon fill="#C1181F" points="195.891,436.697 350.092,568.685 393.843,404.733 	"/>

        <polygon fill="#AF1117" points="350.092,568.685 393.843,404.733 487.631,568.685 	"/>

        <polygon fill="#9E0C10" points="393.843,404.733 487.631,568.685 581.42,410.761 	"/>

        <polygon fill="#830001" points="646.037,499.149 487.631,568.685 581.42,410.761 	"/>

        <polygon fill="#740206" points="535.706,582.704 487.631,568.685 646.037,499.149 	"/>
    </g>

    <!-- high row of 8 panes left-right -->
    <g id="row-3" class="row">
        <polygon fill="#BA3731" points="195.891,436.697 134.487,465.296 100,347.535 	"/>

        <polygon fill="#C93939" points="100,347.114 295.148,269.167 195.891,436.697 	"/>

        <polygon fill="#DB3E3E" points="295.148,269.167 195.891,436.697 393.843,404.733 	"/>

        <polygon fill="#D41C25" points="393.843,404.733 295.148,269.167 462.234,261.317 	"/>

        <polygon fill="#A20D11" points="462.234,261.317 393.843,404.733 581.42,410.761 	"/>

        <polygon fill="#850203" points="581.42,410.761 462.234,261.317 573.266,279.962 	"/>

        <polygon fill="#710000" points="700,348.096 573.266,279.962 581.42,410.761 	"/>

        <polygon fill="#610000" points="581.42,410.761 700,348.096 646.037,499.149 	"/>
    </g>

    <!-- highest row of eight panes -->
    <g id="row-4" class="row">
        <polygon fill="#C63936" points="160.563,210.847 100,347.535 100,347.254 295.148,269.167 		"/>

        <polygon fill="#D61923" points="160.563,210.847 267.389,141.873 295.148,269.167 		"/>

        <polygon fill="#BB161C" points="295.148,269.167 267.389,141.873 401.133,219.259 		"/>

        <polygon fill="#B4171C" points="401.133,219.259 295.148,269.167 462.234,261.317 		"/>

        <polygon fill="#C5171D" points="462.234,261.317 401.133,219.259 534.27,141.592 		"/>

        <polygon fill="#A30D11" points="534.27,141.592 462.234,261.317 573.266,279.962 		"/>

        <polygon fill="#7F0B07" points="573.244,279.962 534.27,141.592 639.414,211.548 		"/>

        <polygon fill="#5C0102" points="573.266,279.962 639.414,211.548 700,348.096 		"/>
    </g>
</svg>